# xmcd
#
# Track frame offsets:
#	150
#	14913
#	27512
#	41035
#	52878
#	62388
#	72750
#	84736
#	95530
#	105070
#
# Disc length: 1547 seconds
#
# Revision: 0
# Processed by: cddbd v1.5.1PL0 Copyright (c) Steve Scherf et al.
# Submitted via: dBpowerAMP V4.0
#
DISCID=7a06090a
DTITLE=George Jones - At His Best
DYEAR=2005
DGENRE=Country
TTITLE0=He Stopped Loving Her Today
TTITLE1=Saginaw Michigan
TTITLE2=Come Sundown
TTITLE3=Beneath Still Waters
TTITLE4=Let It Rain Or Let It Shine
TTITLE5=Even The Loser ( Likes To Dream )
TTITLE6=The Hardest Part Of All
TTITLE7=How Much Rain
TTITLE8=Please Don't Let That Woman Get Me
TTITLE9=Among The Few
EXTD=
EXTT0=
EXTT1=
EXTT2=
EXTT3=
EXTT4=
EXTT5=
EXTT6=
EXTT7=
EXTT8=
EXTT9=
PLAYORDER=
